<svg id="Lager_1" data-name="Lager 1" xmlns="http://www.w3.org/2000/svg" viewBox="0 0 454.02 153.9"><defs><style>.cls-1{fill:#1d1d1b;}</style></defs><title>Observer</title><path class="cls-1" d="M277.26,349.32a50.55,50.55,0,1,1,50.55-50.55A50.61,50.61,0,0,1,277.26,349.32Zm0-99.1a48.55,48.55,0,1,0,48.55,48.55A48.61,48.61,0,0,0,277.26,250.22Z" transform="translate(-200.92 -222.27)"/><path class="cls-1" d="M277.26,349.32a50.55,50.55,0,1,1,50.55-50.55A50.61,50.61,0,0,1,277.26,349.32Zm0-99.1a48.55,48.55,0,1,0,48.55,48.55A48.61,48.61,0,0,0,277.26,250.22Z" transform="translate(-200.92 -222.27)"/><rect class="cls-1" y="76.12" width="51.38" height="0.75"/><rect class="cls-1" x="51" y="46.64" width="0.75" height="60.11"/><polygon class="cls-1" points="51.61 61.96 51.15 61.37 84.69 35.05 84.69 0 85.44 0 85.44 35.42 85.29 35.53 51.61 61.96"/><polygon class="cls-1" points="85.44 153.9 84.69 153.9 84.69 119.37 51.16 95.13 51.6 94.52 85.44 118.99 85.44 153.9"/><polygon class="cls-1" points="60.19 110.46 70.03 98.55 76.25 113.05 60.19 110.46"/><path class="cls-1" d="M339.05,314.13c2.76-10,10-15.86,20.14-15.86,13.3,0,21.94,10.07,21.94,25.74,0,15.39-8.74,25.64-21.94,25.64-10,0-17.29-6-20-15.76h-.29a45.43,45.43,0,0,1,.48,6.84v8h-2.47a69.79,69.79,0,0,0,.28-7.12V283.64c0-3.32-.09-12.58-.28-14.57h2.75c-.19,2-.28,11.25-.28,14.57V307a55.1,55.1,0,0,1-.48,7.12ZM379,324c0-14.53-7.6-23.75-19.76-23.75s-19.85,9.12-19.85,23.75c0,14.44,7.79,23.65,19.85,23.65S379,338.54,379,324Z" transform="translate(-200.92 -222.27)"/><path class="cls-1" d="M392.24,338.54a22.83,22.83,0,0,0,4.94,5.51c3,2.47,7.31,3.61,12.44,3.61,10,0,15.48-4,15.48-11.49,0-6.56-3.7-9.31-16-11.78-11.3-2.28-15.76-5.89-15.76-12.63,0-8.08,6.46-13.4,16.15-13.4a23.61,23.61,0,0,1,9.49,1.9,19.24,19.24,0,0,1,6.27,4.47l-1.52,1.61a16.33,16.33,0,0,0-5.13-4,21,21,0,0,0-9.11-2c-8.74,0-14,4.27-14,11.4,0,5.6,3.9,8.45,14,10.44,13.2,2.66,17.76,6.27,17.76,13.78,0,8.54-6.65,13.67-17.76,13.67-5.61,0-10-1.23-13.49-3.89a22.28,22.28,0,0,1-5.42-5.7Z" transform="translate(-200.92 -222.27)"/><path class="cls-1" d="M439,323.25v.47c0,14.44,8.35,23.94,21.08,23.94a22.91,22.91,0,0,0,13.49-4.09,18.2,18.2,0,0,0,3.8-3.79l1.52,1.42a25.81,25.81,0,0,1-3.61,3.42,24.16,24.16,0,0,1-15.2,5c-13.77,0-23.27-10.54-23.27-25.93,0-16,8.55-25.64,22.51-25.64,13.3,0,20.8,8.45,20.8,23.46v1.71Zm38.94-1.9c0-13.68-6.65-21.28-18.71-21.28-11.88,0-19.38,8-20.14,21.28Z" transform="translate(-200.92 -222.27)"/><path class="cls-1" d="M496.43,311.47c2.56-7.79,8.92-13,16.43-13a17,17,0,0,1,7.5,1.42L519.6,302a17.91,17.91,0,0,0-7.41-1.52c-7.41,0-13.77,6.27-15.48,15.2v25.93a69.3,69.3,0,0,0,.29,7.12h-2.76a69.3,69.3,0,0,0,.29-7.12V306.44a68.3,68.3,0,0,0-.29-7.13h2.47V303a65.65,65.65,0,0,1-.47,8.45Z" transform="translate(-200.92 -222.27)"/><path class="cls-1" d="M566.14,299.31a73.55,73.55,0,0,0-3.14,7.13l-14,35.14a51.15,51.15,0,0,0-2.37,7.12h-3a51.43,51.43,0,0,0-2.38-7.12l-14-35.14a76.45,76.45,0,0,0-3.13-7.13H527a58.3,58.3,0,0,0,2.56,7.13L543,340.06c.86,2.18,1.62,4.18,2.19,5.89.57-1.71,1-3,2.18-5.89l13.39-33.62a60.73,60.73,0,0,0,2.57-7.13Z" transform="translate(-200.92 -222.27)"/><path class="cls-1" d="M573.54,323.25v.47c0,14.44,8.36,23.94,21.09,23.94a22.93,22.93,0,0,0,13.49-4.09,18.2,18.2,0,0,0,3.8-3.79l1.52,1.42a25.81,25.81,0,0,1-3.61,3.42,24.18,24.18,0,0,1-15.2,5c-13.77,0-23.27-10.54-23.27-25.93,0-16,8.55-25.64,22.51-25.64,13.3,0,20.8,8.45,20.8,23.46v1.71Zm39-1.9c0-13.68-6.65-21.28-18.72-21.28-11.87,0-19.37,8-20.13,21.28Z" transform="translate(-200.92 -222.27)"/><path class="cls-1" d="M631,311.47c2.57-7.79,8.93-13,16.44-13a17.06,17.06,0,0,1,7.5,1.42l-.76,2.09a17.91,17.91,0,0,0-7.41-1.52c-7.41,0-13.77,6.27-15.48,15.2v25.93a69.79,69.79,0,0,0,.28,7.12h-2.75a69.79,69.79,0,0,0,.28-7.12V306.44a68.81,68.81,0,0,0-.28-7.13h2.47V303a63.6,63.6,0,0,1-.48,8.45Z" transform="translate(-200.92 -222.27)"/></svg>